<mxfile host="app.diagrams.net" modified="2020-03-30T01:40:51.483Z" agent="5.0 (Macintosh; Intel Mac OS X 10_13_6) AppleWebKit/537.36 (KHTML, like Gecko) Chrome/80.0.3987.149 Safari/537.36" etag="r6pjOvqHtAZeXzzhD2E7" version="12.9.4" type="github">
  <diagram id="IxGNY1ABd3ZUO6N03v3N" name="Page-1">
    <mxGraphModel dx="2233" dy="1793" grid="1" gridSize="10" guides="1" tooltips="1" connect="1" arrows="1" fold="1" page="1" pageScale="1" pageWidth="827" pageHeight="1169" math="0" shadow="0">
      <root>
        <mxCell id="0" />
        <mxCell id="1" parent="0" />
        <mxCell id="IZCvQOlK8HWWSyiSWddc-15" value="" style="group" vertex="1" connectable="0" parent="1">
          <mxGeometry x="-50" y="70" width="650" height="330" as="geometry" />
        </mxCell>
        <mxCell id="IZCvQOlK8HWWSyiSWddc-1" value="coin(9/9)" style="rounded=1;whiteSpace=wrap;html=1;fillColor=#D5E8D4;" vertex="1" parent="IZCvQOlK8HWWSyiSWddc-15">
          <mxGeometry x="80" width="120" height="60" as="geometry" />
        </mxCell>
        <mxCell id="IZCvQOlK8HWWSyiSWddc-2" value="user(4/4)" style="rounded=1;whiteSpace=wrap;html=1;fillColor=#D5E8D4;" vertex="1" parent="IZCvQOlK8HWWSyiSWddc-15">
          <mxGeometry x="80" y="80" width="120" height="60" as="geometry" />
        </mxCell>
        <mxCell id="IZCvQOlK8HWWSyiSWddc-3" value="API" style="rounded=0;whiteSpace=wrap;html=1;" vertex="1" parent="IZCvQOlK8HWWSyiSWddc-15">
          <mxGeometry y="40" width="50" height="60" as="geometry" />
        </mxCell>
        <mxCell id="IZCvQOlK8HWWSyiSWddc-4" value="trade(5/5)" style="rounded=1;whiteSpace=wrap;html=1;fillColor=#D5E8D4;" vertex="1" parent="IZCvQOlK8HWWSyiSWddc-15">
          <mxGeometry x="230" width="120" height="60" as="geometry" />
        </mxCell>
        <mxCell id="IZCvQOlK8HWWSyiSWddc-5" value="balance(6/6)" style="rounded=1;whiteSpace=wrap;html=1;fillColor=#D5E8D4;" vertex="1" parent="IZCvQOlK8HWWSyiSWddc-15">
          <mxGeometry x="370" width="120" height="60" as="geometry" />
        </mxCell>
        <mxCell id="IZCvQOlK8HWWSyiSWddc-6" value="agreement(0/6)" style="rounded=1;whiteSpace=wrap;html=1;fillColor=#FFD966;" vertex="1" parent="IZCvQOlK8HWWSyiSWddc-15">
          <mxGeometry x="370" y="80" width="120" height="60" as="geometry" />
        </mxCell>
        <mxCell id="IZCvQOlK8HWWSyiSWddc-7" value="userpay(11/11)" style="rounded=1;whiteSpace=wrap;html=1;fillColor=#D5E8D4;" vertex="1" parent="IZCvQOlK8HWWSyiSWddc-15">
          <mxGeometry x="230" y="80" width="120" height="60" as="geometry" />
        </mxCell>
        <mxCell id="IZCvQOlK8HWWSyiSWddc-8" value="exchange(0/6)" style="rounded=1;whiteSpace=wrap;html=1;fillColor=#FFD966;" vertex="1" parent="IZCvQOlK8HWWSyiSWddc-15">
          <mxGeometry x="520" width="120" height="60" as="geometry" />
        </mxCell>
        <mxCell id="IZCvQOlK8HWWSyiSWddc-9" value="signature(0/6)" style="rounded=1;whiteSpace=wrap;html=1;fillColor=#FFD966;" vertex="1" parent="IZCvQOlK8HWWSyiSWddc-15">
          <mxGeometry x="520" y="80" width="120" height="60" as="geometry" />
        </mxCell>
        <mxCell id="IZCvQOlK8HWWSyiSWddc-10" value="wechat pay" style="rounded=1;whiteSpace=wrap;html=1;fillColor=#D5E8D4;" vertex="1" parent="IZCvQOlK8HWWSyiSWddc-15">
          <mxGeometry x="380" y="220" width="120" height="60" as="geometry" />
        </mxCell>
        <mxCell id="IZCvQOlK8HWWSyiSWddc-11" value="ali pay" style="rounded=1;whiteSpace=wrap;html=1;fillColor=#FFD966;" vertex="1" parent="IZCvQOlK8HWWSyiSWddc-15">
          <mxGeometry x="530" y="220" width="120" height="60" as="geometry" />
        </mxCell>
        <mxCell id="IZCvQOlK8HWWSyiSWddc-12" value="blockchain(coin)" style="rounded=1;whiteSpace=wrap;html=1;fillColor=#FF3333;" vertex="1" parent="IZCvQOlK8HWWSyiSWddc-15">
          <mxGeometry x="80" y="190" width="270" height="60" as="geometry" />
        </mxCell>
        <mxCell id="IZCvQOlK8HWWSyiSWddc-13" value="blockchain(management)" style="rounded=1;whiteSpace=wrap;html=1;fillColor=#FFD966;" vertex="1" parent="IZCvQOlK8HWWSyiSWddc-15">
          <mxGeometry x="80" y="270" width="270" height="60" as="geometry" />
        </mxCell>
        <mxCell id="IZCvQOlK8HWWSyiSWddc-14" value="system" style="rounded=0;whiteSpace=wrap;html=1;" vertex="1" parent="IZCvQOlK8HWWSyiSWddc-15">
          <mxGeometry y="220" width="50" height="60" as="geometry" />
        </mxCell>
        <mxCell id="IZCvQOlK8HWWSyiSWddc-16" value="App" style="rounded=1;whiteSpace=wrap;html=1;fillColor=#FF3333;" vertex="1" parent="1">
          <mxGeometry x="330" y="-40" width="120" height="60" as="geometry" />
        </mxCell>
        <mxCell id="IZCvQOlK8HWWSyiSWddc-17" value="小程序" style="rounded=1;whiteSpace=wrap;html=1;fillColor=#FF3333;" vertex="1" parent="1">
          <mxGeometry x="130" y="-40" width="120" height="60" as="geometry" />
        </mxCell>
      </root>
    </mxGraphModel>
  </diagram>
</mxfile>
